<svg width="128" height="128" viewBox="0 0 128 128" xmlns="http://www.w3.org/2000/svg">
  <defs>
    <linearGradient id="grad1" x1="0%" y1="0%" x2="100%" y2="100%">
      <stop offset="0%" style="stop-color:#667eea;stop-opacity:1" />
      <stop offset="100%" style="stop-color:#764ba2;stop-opacity:1" />
    </linearGradient>
  </defs>
  
  <!-- Background circle -->
  <circle cx="64" cy="64" r="56" fill="url(#grad1)" stroke="#fff" stroke-width="4"/>
  
  <!-- Book pages -->
  <rect x="35" y="35" width="50" height="60" rx="4" fill="#fff" opacity="0.9"/>
  <rect x="40" y="40" width="40" height="50" rx="2" fill="none" stroke="#667eea" stroke-width="2"/>
  
  <!-- Text lines -->
  <line x1="45" y1="48" x2="75" y2="48" stroke="#667eea" stroke-width="2" stroke-linecap="round"/>
  <line x1="45" y1="55" x2="70" y2="55" stroke="#667eea" stroke-width="2" stroke-linecap="round"/>
  <line x1="45" y1="62" x2="75" y2="62" stroke="#667eea" stroke-width="2" stroke-linecap="round"/>
  <line x1="45" y1="69" x2="65" y2="69" stroke="#667eea" stroke-width="2" stroke-linecap="round"/>
  <line x1="45" y1="76" x2="72" y2="76" stroke="#667eea" stroke-width="2" stroke-linecap="round"/>
  
  <!-- Bookmark -->
  <polygon points="70,35 80,35 80,58 75,53 70,58" fill="#f59e0b"/>
  
  <!-- Plus icon (add) -->
  <circle cx="85" cy="45" r="12" fill="#10b981"/>
  <line x1="79" y1="45" x2="91" y2="45" stroke="#fff" stroke-width="3" stroke-linecap="round"/>
  <line x1="85" y1="39" x2="85" y2="51" stroke="#fff" stroke-width="3" stroke-linecap="round"/>
</svg> 